<svg width="340" height="204" viewBox="0 0 340 204" fill="none" xmlns="http://www.w3.org/2000/svg" role="img" aria-label="Top Languages">
  <style>
    .header { font: 600 18px 'Segoe UI', Ubuntu, Sans-Serif; fill: #70a5fd; }
    .lang { font: 600 12px 'Segoe UI', Ubuntu, Sans-Serif; fill: #38bdae; }
    .pct { font: 600 12px 'Segoe UI', Ubuntu, Sans-Serif; fill: #565f89; }
  </style>
  <rect width="340" height="204" rx="8" fill="#1a1b27"/>
  <text class="header" x="24" y="32">Most Used Languages</text>
  <rect x="24" y="48" width="163" height="8" fill="#3178c6"/><rect x="187" y="48" width="78" height="8" fill="#3572A5"/><rect x="265" y="48" width="19" height="8" fill="#f1e05a"/><rect x="284" y="48" width="18" height="8" fill="#e34c26"/><rect x="302" y="48" width="11" height="8" fill="#AA6746"/><rect x="313" y="48" width="4" height="8" fill="#663399"/>
  <circle cx="32" cy="70" r="4" fill="#3178c6"/><text class="lang" x="44" y="74">TypeScript</text><text class="pct" x="316" y="74" text-anchor="end">55.8%</text><circle cx="32" cy="92" r="4" fill="#3572A5"/><text class="lang" x="44" y="96">Python</text><text class="pct" x="316" y="96" text-anchor="end">26.7%</text><circle cx="32" cy="114" r="4" fill="#f1e05a"/><text class="lang" x="44" y="118">JavaScript</text><text class="pct" x="316" y="118" text-anchor="end">6.4%</text><circle cx="32" cy="136" r="4" fill="#e34c26"/><text class="lang" x="44" y="140">HTML</text><text class="pct" x="316" y="140" text-anchor="end">6.0%</text><circle cx="32" cy="158" r="4" fill="#AA6746"/><text class="lang" x="44" y="162">Solidity</text><text class="pct" x="316" y="162" text-anchor="end">3.7%</text><circle cx="32" cy="180" r="4" fill="#663399"/><text class="lang" x="44" y="184">CSS</text><text class="pct" x="316" y="184" text-anchor="end">1.3%</text>
</svg>
